#define 44c70261d1184226decf0117c18fa2ecu4OoFZpBUS5mL86A_width 52
#define 44c70261d1184226decf0117c18fa2ecu4OoFZpBUS5mL86A_height 36
static char 44c70261d1184226decf0117c18fa2ecu4OoFZpBUS5mL86A_bits[] = {
  0x00, 0x00, 0x00, 0x00, 0x00, 0x00, 0x00, 0x00, 0x00, 0x00, 0x00, 0x00, 
  0x00, 0x00, 0x00, 0x00, 0x00, 0x00, 0x00, 0x00, 0x00, 0x00, 0x00, 0x00, 
  0x00, 0x00, 0x00, 0x00, 0x00, 0x00, 0x00, 0x00, 0x00, 0x00, 0x00, 0x00, 
  0x00, 0x00, 0x00, 0x00, 0x00, 0x00, 0x00, 0x00, 0x00, 0x00, 0x00, 0x00, 
  0x00, 0xC0, 0x7F, 0x00, 0x7C, 0x00, 0x00, 0x00, 0xC0, 0xFF, 0x80, 0xFF, 
  0x00, 0x00, 0x00, 0xC0, 0xC1, 0x83, 0xC3, 0x01, 0x00, 0x00, 0xC0, 0x80, 
  0xC3, 0x01, 0x01, 0x00, 0x00, 0xC0, 0x81, 0xC3, 0x01, 0x00, 0x00, 0x00, 
  0xC0, 0x00, 0xC7, 0x00, 0x00, 0x00, 0x00, 0xC0, 0x01, 0xC3, 0x01, 0x00, 
  0x3E, 0x00, 0xC0, 0x00, 0xC7, 0x03, 0x80, 0x7F, 0x00, 0xC0, 0x81, 0x83, 
  0x07, 0xC0, 0xE3, 0x00, 0xC0, 0x81, 0x03, 0x3F, 0xC0, 0x80, 0x00, 0xC0, 
  0xE0, 0x01, 0x7E, 0xE0, 0x00, 0x00, 0xC0, 0xFF, 0x00, 0xF0, 0xE1, 0x00, 
  0x00, 0xC0, 0x3F, 0x00, 0xE0, 0x61, 0x00, 0x00, 0xC0, 0x01, 0x00, 0x80, 
  0x63, 0x00, 0x00, 0xC0, 0x00, 0x00, 0x80, 0x63, 0x00, 0x00, 0xC0, 0x00, 
  0x00, 0x80, 0x63, 0x00, 0x00, 0xC0, 0x01, 0x00, 0x80, 0xE3, 0x00, 0x00, 
  0xC0, 0x01, 0x60, 0xC0, 0xE1, 0x80, 0x00, 0xC0, 0x00, 0xE0, 0xE1, 0xC1, 
  0xE3, 0x00, 0xC0, 0x01, 0xC0, 0xFF, 0x80, 0x7F, 0x00, 0xC0, 0x00, 0x00, 
  0x3F, 0x00, 0x1F, 0x00, 0x00, 0x00, 0x00, 0x00, 0x00, 0x00, 0x00, 0x00, 
  0x00, 0x00, 0x00, 0x00, 0x00, 0x00, 0x00, 0x00, 0x00, 0x00, 0x00, 0x00, 
  0x00, 0x00, 0x00, 0x00, 0x00, 0x00, 0x00, 0x00, 0x00, 0x00, 0x00, 0x00, 
  0x00, 0x00, 0x00, 0x00, 0x00, 0x00, 0x00, 0x00, 0x00, 0x00, 0x00, 0x00, 
  0x00, 0x00, 0x00, 0x00, 0x00, 0x00, 0x00, 0x00, 0x00, 0x00, 0x00, 0x00, 
  };
